<svg id="visual" viewBox="0 0 900 600" width="900" height="600" xmlns="http://www.w3.org/2000/svg" xmlns:xlink="http://www.w3.org/1999/xlink" version="1.1"><rect x="0" y="0" width="900" height="600" fill="#FFC689"></rect><defs><linearGradient id="grad1_0" x1="33.3%" y1="0%" x2="100%" y2="100%"><stop offset="20%" stop-color="#ffc689" stop-opacity="1"></stop><stop offset="80%" stop-color="#ffc689" stop-opacity="1"></stop></linearGradient></defs><defs><linearGradient id="grad2_0" x1="0%" y1="0%" x2="66.7%" y2="100%"><stop offset="20%" stop-color="#ffc689" stop-opacity="1"></stop><stop offset="80%" stop-color="#ffc689" stop-opacity="1"></stop></linearGradient></defs><g transform="translate(900, 0)"><path d="M0 486.7C-59.9 473 -119.7 459.2 -181.8 438.8C-243.8 418.5 -308.1 391.4 -344.2 344.2C-380.3 296.9 -388.4 229.5 -407.4 168.8C-426.5 108 -456.6 54 -486.7 0L0 0Z" fill="#ffdcb6"></path></g><g transform="translate(0, 600)"><path d="M0 -486.7C53.1 -454.6 106.2 -422.5 167.2 -403.7C228.3 -385 297.3 -379.7 344.2 -344.2C391.1 -308.7 416 -243 436.1 -180.6C456.2 -118.2 471.5 -59.1 486.7 0L0 0Z" fill="#ffdcb6"></path></g></svg>